<?xml version="1.0" encoding="utf-8"?>
<!-- Generator: Adobe Illustrator 24.2.3, SVG Export Plug-In . SVG Version: 6.00 Build 0)  -->
<svg version="1.1" xmlns="http://www.w3.org/2000/svg" xmlns:xlink="http://www.w3.org/1999/xlink" x="0px" y="0px"
	 viewBox="0 0 784.6 667.8" style="enable-background:new 0 0 784.6 667.8;" xml:space="preserve">
<style type="text/css">
	.st0{display:none;}
	.st1{display:inline;}
	.st2{fill:none;stroke:#FFFFFF;stroke-width:35;stroke-miterlimit:10;}
	.st3{fill:#FFFFFF;stroke:#FFFFFF;stroke-width:15;stroke-miterlimit:10;}
	.st4{fill:#FFFFFF;}
</style>
<g id="Camada_3_1_" class="st0">
	<rect y="-10" class="st1" width="784.6" height="677.8"/>
</g>
<g id="Camada_1">
	<g id="lua">
		<g id="_Group_">
			<path id="_Path_" class="st2" d="M560.7,311.1c-61.5,49-72.2,138.2-23.2,199.7c49.1,61.5,138.2,72.2,199.7,23.2
				c8.9-7.2,16.1-14.3,23.2-23.2c1.8-2.7,5.4-2.7,8-0.9c1.8,1.8,2.7,3.5,1.8,6.2c-26.8,92.7-122.2,145.2-214.8,119.4
				c-91.9-26.7-145.3-122.9-118.5-215.7c16.1-57,61.5-102.5,119.4-119.4c2.7-0.9,6.2,0.9,7.2,3.5
				C563.4,307.5,562.5,309.3,560.7,311.1z"/>
		</g>
		<path class="st2" d="M238.9,634.9"/>
	</g>
	<g id="Camada_3">
		<rect x="106" y="341" transform="matrix(0.5 -0.866 0.866 0.5 -87.6679 540.7327)" class="st3" width="637" height="10.6"/>
	</g>
	<g id="sol_1_">
		<g>
			<g id="_x37__5_">
				<g>
					<path class="st3" d="M64.5,213.3H24.6c-7.3,0-13.3,5.9-13.3,13.3c0,7.3,5.9,13.3,13.3,13.3h39.8c7.3,0,13.3-5.9,13.3-13.3
						C77.7,219.2,71.8,213.3,64.5,213.3z M223.9,80.4c7.3,0,13.3-5.9,13.3-13.3V27.3c0-7.3-5.9-13.3-13.3-13.3
						c-7.3,0-13.3,5.9-13.3,13.3v39.8C210.6,74.5,216.6,80.4,223.9,80.4z M351.7,117.4l27.9-27.9c5.2-5.2,5.2-13.5,0-18.6
						c-5.2-5.2-13.5-5.2-18.6,0l-27.9,27.9c-5.2,5.2-5.2,13.5,0,18.6C338.3,122.5,346.5,122.5,351.7,117.4z M109.7,322.1L81.8,350
						c-5.2,5.2-5.2,13.5,0,18.6c5.2,5.2,13.5,5.2,18.6,0l27.9-27.9c5.2-5.2,5.2-13.5,0-18.6C123.2,316.9,114.9,316.9,109.7,322.1z
						 M101.8,123.2c5.2,5.2,13.6,5.2,18.8,0c5.2-5.2,5.2-13.6,0-18.8L92.4,76.2c-5.2-5.2-13.6-5.2-18.8,0s-5.2,13.6,0,18.8
						L101.8,123.2z M223.9,372.7c-7.3,0-13.3,5.9-13.3,13.3v39.8c0,7.3,5.9,13.3,13.3,13.3c7.3,0,13.3-5.9,13.3-13.3V386
						C237.2,378.7,231.2,372.7,223.9,372.7z M346,329.9c-5.2-5.2-13.6-5.2-18.8,0c-5.2,5.2-5.2,13.6,0,18.8l28.2,28.2
						c5.2,5.2,13.6,5.2,18.8,0s5.2-13.6,0-18.8L346,329.9z M423.2,213.3h-39.8c-7.3,0-13.3,5.9-13.3,13.3c0,7.3,5.9,13.3,13.3,13.3
						h39.8c7.3,0,13.3-5.9,13.3-13.3S430.5,213.3,423.2,213.3z M223.9,106.9c-66.1,0-119.7,53.5-119.7,119.7s53.5,119.7,119.7,119.7
						s119.7-53.5,119.7-119.7S290,106.9,223.9,106.9z M223.9,319.5c-51.4,0-93-41.6-93-93s41.6-93,93-93s93,41.6,93,93
						S275.3,319.5,223.9,319.5z"/>
				</g>
			</g>
		</g>
	</g>
</g>
<g id="Camada_2">
	<ellipse class="st4" cx="229.9" cy="227.6" rx="103" ry="106.3"/>
</g>
</svg>
